<svg width="22" height="22" viewBox="0 0 22 22" fill="none" xmlns="http://www.w3.org/2000/svg">
  <defs/>
  <g clip-path="url(#clip0)">
    <path fill="#fff" fill-rule="evenodd" d="M11 7a4 4 0 100 8 4 4 0 000-8zm8.94 3A9 9 0 0012 2.06V1a1 1 0 00-1-1 1 1 0 00-1 1v1.06A9 9 0 002.06 10H1a1 1 0 00-1 1 1 1 0 001 1h1.06A9 9 0 0010 19.94V21a1 1 0 001 1 1 1 0 001-1v-1.06A9 9 0 0019.94 12H21a1 1 0 001-1 1 1 0 00-1-1h-1.06zM11 18a7 7 0 11-.01-13.99A7 7 0 0111 18z" clip-rule="evenodd"/>
  </g>
  <defs>
    <clipPath id="clip0">
      <path fill="#fff" d="M0 0h22v22H0z"/>
    </clipPath>
  </defs>
</svg>
