<svg width="15" height="20" fill="none" viewBox="0 0 15 20" xmlns="http://www.w3.org/2000/svg" >
  <path fill="#fff" d="M.05 10.7A7.89 7.89 0 01.3 7.68a7.42 7.42 0 016.97-5.5V.15c0-.12.14-.18.23-.11l4.07 3.1c.07.05.07.16 0 .2L7.5 6.45c-.1.07-.22.01-.22-.1V4.29a5.34 5.34 0 00-4.83 3.39 5.63 5.63 0 00.75 5.56c.36.47.28 1.15-.19 1.5a1 1 0 01-1.4-.2A7.67 7.67 0 01.04 10.7zM11.8 6.76a5.55 5.55 0 01.75 5.56 5.33 5.33 0 01-4.83 3.4v-2.06c0-.11-.13-.17-.22-.1l-4.08 3.1c-.06.05-.06.16 0 .2l4.07 3.11c.1.07.23 0 .23-.1V17.8a7.4 7.4 0 006.98-5.49c.26-.94.36-1.96.24-3.02a7.64 7.64 0 00-1.55-3.84 1 1 0 00-1.4-.2 1.08 1.08 0 00-.2 1.5z"/>
</svg>
