<svg xmlns="http://www.w3.org/2000/svg" width="44" height="44" fill="none" viewBox="0 0 44 44">
  <defs/>
  <path fill="#B4B8BB" fill-opacity=".4" d="M39 0H5a5 5 0 00-5 5v34a5 5 0 005 5h34a5 5 0 005-5V5a5 5 0 00-5-5z"/>
  <path fill="#AEB5B9" fill-opacity=".5" d="M27.22 44l-20-20L0 31.22V39a5 5 0 005 5h22.22z"/>
  <path fill="#AEB5B9" fill-opacity=".3" d="M34.22 14L44 23.78V39a5 5 0 01-5 5H27.22l-11.5-11.5L34.22 14z"/>
  <path fill="#fff" fill-opacity=".3" d="M9 13a4 4 0 100-8 4 4 0 000 8z"/>
</svg>
