<svg xmlns="http://www.w3.org/2000/svg" fill="none" viewBox="0 0 16 18">
  <defs/>
  <path fill="#fff" fill-opacity=".4" d="M7.87 11c-.87 0-1.6-.26-2.23-.79a2.38 2.38 0 01-.93-1.86V3.04c0-.75.31-1.38.93-1.89A3.38 3.38 0 017.87.38c.86 0 1.6.26 2.2.77.6.51.9 1.14.9 1.89v5.3c0 .73-.3 1.35-.9 1.87-.6.53-1.34.8-2.2.8zm5.5-2.65h1.8c0 1.5-.6 2.8-1.83 3.92a7.86 7.86 0 01-4.42 2.01v2.9h-2.1v-2.9a7.79 7.79 0 01-4.43-2.03 5.19 5.19 0 01-1.83-3.9h1.76a3.9 3.9 0 001.66 3.2c1.1.85 2.4 1.28 3.89 1.28 1.48 0 2.77-.43 3.86-1.29a3.91 3.91 0 001.64-3.2z"/>
</svg>
